<mxfile host="app.diagrams.net" agent="Mozilla/5.0 (X11; Linux x86_64) AppleWebKit/537.36 (KHTML, like Gecko) Chrome/127.0.0.0 Safari/537.36" version="24.7.7">
  <diagram name="Pàgina-1" id="mhbHxmUa4zc_a_H4eHv1">
    <mxGraphModel dx="1434" dy="754" grid="1" gridSize="10" guides="1" tooltips="1" connect="1" arrows="1" fold="1" page="1" pageScale="1" pageWidth="827" pageHeight="1169" math="0" shadow="0">
      <root>
        <mxCell id="0" />
        <mxCell id="1" parent="0" />
        <mxCell id="f0g6WUUT-RSal3kdll_6-1" value="&lt;font color=&quot;#0066cc&quot; style=&quot;font-size: 14px;&quot;&gt;&lt;b&gt;Ancestre comú&lt;/b&gt;&lt;/font&gt;" style="text;html=1;strokeColor=none;fillColor=none;align=center;verticalAlign=middle;whiteSpace=wrap;rounded=0;fontStyle=2" parent="1" vertex="1">
          <mxGeometry x="300" y="290" width="60" height="30" as="geometry" />
        </mxCell>
        <mxCell id="f0g6WUUT-RSal3kdll_6-2" value="&lt;div style=&quot;line-height: 100%;&quot;&gt;&lt;span style=&quot;background-color: initial;&quot;&gt;&lt;span style=&quot;font-size: 12px;&quot;&gt;&lt;i&gt;Títol&lt;/i&gt;&lt;/span&gt;&lt;/span&gt;&lt;/div&gt;&lt;div style=&quot;line-height: 100%;&quot;&gt;&lt;span style=&quot;background-color: initial;&quot;&gt;0b1b3b4&lt;/span&gt;&lt;br&gt;&lt;/div&gt;" style="rounded=1;whiteSpace=wrap;html=1;fontSize=16;fillColor=#f5f5f5;strokeColor=#666666;fontColor=#333333;" parent="1" vertex="1">
          <mxGeometry x="60" y="240" width="120" height="40" as="geometry" />
        </mxCell>
        <mxCell id="f0g6WUUT-RSal3kdll_6-3" style="rounded=0;orthogonalLoop=1;jettySize=auto;html=1;exitX=0.5;exitY=1;exitDx=0;exitDy=0;fillColor=#dae8fc;strokeColor=#6c8ebf;" parent="1" source="f0g6WUUT-RSal3kdll_6-4" target="f0g6WUUT-RSal3kdll_6-12" edge="1">
          <mxGeometry relative="1" as="geometry">
            <mxPoint x="540" y="360" as="targetPoint" />
          </mxGeometry>
        </mxCell>
        <mxCell id="f0g6WUUT-RSal3kdll_6-4" value="docs" style="ellipse;whiteSpace=wrap;html=1;fillColor=#dae8fc;strokeColor=#6c8ebf;fontSize=16;fontStyle=1" parent="1" vertex="1">
          <mxGeometry x="490" y="390" width="100" height="40" as="geometry" />
        </mxCell>
        <mxCell id="f0g6WUUT-RSal3kdll_6-5" style="edgeStyle=orthogonalEdgeStyle;rounded=0;orthogonalLoop=1;jettySize=auto;html=1;exitX=0;exitY=0.5;exitDx=0;exitDy=0;fillColor=#f5f5f5;strokeColor=#666666;" parent="1" source="f0g6WUUT-RSal3kdll_6-6" target="f0g6WUUT-RSal3kdll_6-2" edge="1">
          <mxGeometry relative="1" as="geometry" />
        </mxCell>
        <mxCell id="f0g6WUUT-RSal3kdll_6-6" value="&lt;div style=&quot;line-height: 100%;&quot;&gt;&lt;font style=&quot;font-size: 12px;&quot;&gt;Subtítol documentació&lt;/font&gt;&lt;/div&gt;1b2c5d6" style="rounded=1;whiteSpace=wrap;html=1;fontSize=16;fillColor=#f5f5f5;strokeColor=#666666;fontColor=#333333;" parent="1" vertex="1">
          <mxGeometry x="260" y="240" width="140" height="40" as="geometry" />
        </mxCell>
        <mxCell id="f0g6WUUT-RSal3kdll_6-7" style="rounded=0;orthogonalLoop=1;jettySize=auto;html=1;exitX=0.5;exitY=1;exitDx=0;exitDy=0;fillColor=#d5e8d4;strokeColor=#82b366;opacity=50;dashed=1;textOpacity=50;" parent="1" source="f0g6WUUT-RSal3kdll_6-8" target="f0g6WUUT-RSal3kdll_6-13" edge="1">
          <mxGeometry relative="1" as="geometry">
            <mxPoint x="540" y="240" as="targetPoint" />
          </mxGeometry>
        </mxCell>
        <mxCell id="f0g6WUUT-RSal3kdll_6-8" value="main" style="ellipse;whiteSpace=wrap;html=1;fillColor=#d5e8d4;strokeColor=#82b366;fontSize=16;fontStyle=1;opacity=50;dashed=1;textOpacity=50;" parent="1" vertex="1">
          <mxGeometry x="490" y="165" width="100" height="40" as="geometry" />
        </mxCell>
        <mxCell id="f0g6WUUT-RSal3kdll_6-9" style="edgeStyle=orthogonalEdgeStyle;rounded=0;orthogonalLoop=1;jettySize=auto;html=1;exitX=0.5;exitY=1;exitDx=0;exitDy=0;fillColor=#f5f5f5;strokeColor=#666666;entryX=0.5;entryY=0;entryDx=0;entryDy=0;opacity=50;dashed=1;textOpacity=50;" parent="1" source="f0g6WUUT-RSal3kdll_6-10" target="f0g6WUUT-RSal3kdll_6-8" edge="1">
          <mxGeometry relative="1" as="geometry" />
        </mxCell>
        <mxCell id="f0g6WUUT-RSal3kdll_6-10" value="HEAD" style="ellipse;whiteSpace=wrap;html=1;fillColor=#f5f5f5;strokeColor=#666666;fontSize=16;fontStyle=1;fontColor=#333333;opacity=50;dashed=1;textOpacity=50;" parent="1" vertex="1">
          <mxGeometry x="490" y="90" width="100" height="40" as="geometry" />
        </mxCell>
        <mxCell id="f0g6WUUT-RSal3kdll_6-11" style="edgeStyle=orthogonalEdgeStyle;rounded=0;orthogonalLoop=1;jettySize=auto;html=1;fillColor=#f5f5f5;strokeColor=#666666;" parent="1" source="f0g6WUUT-RSal3kdll_6-13" target="f0g6WUUT-RSal3kdll_6-6" edge="1">
          <mxGeometry relative="1" as="geometry">
            <mxPoint x="480" y="260" as="sourcePoint" />
            <mxPoint x="210" y="270" as="targetPoint" />
          </mxGeometry>
        </mxCell>
        <mxCell id="f0g6WUUT-RSal3kdll_6-12" value="&lt;div style=&quot;line-height: 100%;&quot;&gt;&lt;span style=&quot;background-color: initial;&quot;&gt;&lt;span style=&quot;font-size: 12px;&quot;&gt;Documetació oficial&lt;/span&gt;&lt;/span&gt;&lt;/div&gt;&lt;div style=&quot;line-height: 100%;&quot;&gt;&lt;span style=&quot;background-color: initial;&quot;&gt;3d4e5f6&lt;/span&gt;&lt;br&gt;&lt;/div&gt;" style="rounded=1;whiteSpace=wrap;html=1;fontSize=16;fillColor=#f5f5f5;strokeColor=#666666;fontColor=#333333;" parent="1" vertex="1">
          <mxGeometry x="480" y="320" width="120" height="40" as="geometry" />
        </mxCell>
        <mxCell id="f0g6WUUT-RSal3kdll_6-13" value="&lt;div style=&quot;line-height: 100%;&quot;&gt;&lt;font style=&quot;font-size: 12px;&quot;&gt;Autor&lt;/font&gt;&lt;/div&gt;2a3b4c5" style="rounded=1;whiteSpace=wrap;html=1;fontSize=16;fillColor=#f5f5f5;strokeColor=#666666;fontColor=#333333;" parent="1" vertex="1">
          <mxGeometry x="480" y="240" width="120" height="40" as="geometry" />
        </mxCell>
        <mxCell id="f0g6WUUT-RSal3kdll_6-14" style="rounded=0;orthogonalLoop=1;jettySize=auto;html=1;fillColor=#f5f5f5;strokeColor=#666666;exitX=0;exitY=0.5;exitDx=0;exitDy=0;entryX=1;entryY=1;entryDx=0;entryDy=0;" parent="1" source="f0g6WUUT-RSal3kdll_6-12" target="f0g6WUUT-RSal3kdll_6-6" edge="1">
          <mxGeometry relative="1" as="geometry">
            <mxPoint x="490" y="270" as="sourcePoint" />
            <mxPoint x="410" y="270" as="targetPoint" />
          </mxGeometry>
        </mxCell>
        <mxCell id="f0g6WUUT-RSal3kdll_6-15" value="&lt;div style=&quot;line-height: 100%;&quot;&gt;&lt;font style=&quot;font-size: 12px;&quot;&gt;Merge branch &#39;docs&#39; into &#39;main&#39;&lt;/font&gt;&lt;/div&gt;b6aa5c3" style="rounded=1;whiteSpace=wrap;html=1;fontSize=16;fillColor=#f5f5f5;strokeColor=#666666;fontColor=#333333;" parent="1" vertex="1">
          <mxGeometry x="680" y="230" width="120" height="60" as="geometry" />
        </mxCell>
        <mxCell id="f0g6WUUT-RSal3kdll_6-16" style="edgeStyle=orthogonalEdgeStyle;rounded=0;orthogonalLoop=1;jettySize=auto;html=1;fillColor=#f5f5f5;strokeColor=#666666;" parent="1" source="f0g6WUUT-RSal3kdll_6-15" target="f0g6WUUT-RSal3kdll_6-13" edge="1">
          <mxGeometry relative="1" as="geometry">
            <mxPoint x="490" y="270" as="sourcePoint" />
            <mxPoint x="410" y="270" as="targetPoint" />
          </mxGeometry>
        </mxCell>
        <mxCell id="f0g6WUUT-RSal3kdll_6-17" style="rounded=0;orthogonalLoop=1;jettySize=auto;html=1;fillColor=#f5f5f5;strokeColor=#666666;exitX=0;exitY=1;exitDx=0;exitDy=0;entryX=1;entryY=0.5;entryDx=0;entryDy=0;" parent="1" source="f0g6WUUT-RSal3kdll_6-15" target="f0g6WUUT-RSal3kdll_6-12" edge="1">
          <mxGeometry relative="1" as="geometry">
            <mxPoint x="490" y="350" as="sourcePoint" />
            <mxPoint x="410" y="290" as="targetPoint" />
          </mxGeometry>
        </mxCell>
        <mxCell id="f0g6WUUT-RSal3kdll_6-18" style="rounded=0;orthogonalLoop=1;jettySize=auto;html=1;exitX=0.5;exitY=1;exitDx=0;exitDy=0;fillColor=#d5e8d4;strokeColor=#82b366;" parent="1" source="f0g6WUUT-RSal3kdll_6-19" target="f0g6WUUT-RSal3kdll_6-15" edge="1">
          <mxGeometry relative="1" as="geometry">
            <mxPoint x="740" y="230" as="targetPoint" />
          </mxGeometry>
        </mxCell>
        <mxCell id="f0g6WUUT-RSal3kdll_6-19" value="main" style="ellipse;whiteSpace=wrap;html=1;fillColor=#d5e8d4;strokeColor=#82b366;fontSize=16;fontStyle=1" parent="1" vertex="1">
          <mxGeometry x="690" y="165" width="100" height="40" as="geometry" />
        </mxCell>
        <mxCell id="f0g6WUUT-RSal3kdll_6-20" style="edgeStyle=orthogonalEdgeStyle;rounded=0;orthogonalLoop=1;jettySize=auto;html=1;exitX=0.5;exitY=1;exitDx=0;exitDy=0;fillColor=#f5f5f5;strokeColor=#666666;entryX=0.5;entryY=0;entryDx=0;entryDy=0;" parent="1" source="f0g6WUUT-RSal3kdll_6-21" target="f0g6WUUT-RSal3kdll_6-19" edge="1">
          <mxGeometry relative="1" as="geometry" />
        </mxCell>
        <mxCell id="f0g6WUUT-RSal3kdll_6-21" value="HEAD" style="ellipse;whiteSpace=wrap;html=1;fillColor=#f5f5f5;strokeColor=#666666;fontSize=16;fontStyle=1;fontColor=#333333;" parent="1" vertex="1">
          <mxGeometry x="690" y="90" width="100" height="40" as="geometry" />
        </mxCell>
        <mxCell id="f0g6WUUT-RSal3kdll_6-22" value="" style="endArrow=classic;html=1;rounded=0;strokeWidth=3;fillColor=#dae8fc;strokeColor=#6c8ebf;" parent="1" edge="1">
          <mxGeometry width="50" height="50" relative="1" as="geometry">
            <mxPoint x="580" y="150" as="sourcePoint" />
            <mxPoint x="700" y="150" as="targetPoint" />
          </mxGeometry>
        </mxCell>
      </root>
    </mxGraphModel>
  </diagram>
</mxfile>
